<svg width="262" height="193" viewBox="0 0 262 193" fill="none" xmlns="http://www.w3.org/2000/svg">
<path d="M0 191C0 188 1.3 185.2 2.6 185.2C3.5 185.2 4 186.4 4 188.7C4 191.5 3.6 192.2 2 192.2C0.9 192.2 0 191.6 0 191Z" fill="black"/>
<path d="M35 175.1C35 174.6 35.5 174.2 36 174.2C36.6 174.2 37 172.6 37 170.7C37 167.8 36.6 167.2 34.9 167.2C33.1 167.2 32.8 167.7 33.2 170.7C33.6 173.9 33.4 174.2 31 174.2C28.5 174.2 28.5 174.1 28.5 166.7C28.5 159.3 28.5 159.2 31.1 159.2C33.4 159.2 33.6 159.5 33.2 162.2C32.8 164.7 33.1 165.2 34.9 165.2C36.5 165.2 37 164.6 37 162.7C37 160.9 37.5 160.2 39 160.2C40.7 160.2 41 160.8 40.9 163.5C40.8 165.2 41.1 168.1 41.5 169.8C41.9 171.8 41.7 173.2 40.8 173.9C38.9 175.3 35 176.2 35 175.1Z" fill="black"/>
<path d="M90.0999 174.8C88.6999 173.1 89.3999 171.2 91.4999 171.2C93.6999 171.2 94.3999 173.2 92.7999 174.8C91.4999 176.1 91.1999 176.1 90.0999 174.8Z" fill="black"/>
<path d="M234.1 174.8C233.2 173.8 233.3 173.2 234.5 172.2C236.4 170.6 238.6 172.3 237.7 174.6C236.9 176.6 235.6 176.6 234.1 174.8Z" fill="black"/>
<path d="M82.4 173.7C82.7 172.8 83 170.4 83 168.4V164.8L85.2 167C87 168.8 87.2 169.6 86.4 171.9C85.9 173.4 84.6 174.8 83.6 175C82.2 175.3 81.9 175 82.4 173.7Z" fill="black"/>
<path d="M194.8 174.4C195.8 173.7 196.1 171.4 195.8 165.8L195.5 158.1L198 158.4C200.2 158.7 200.5 159.3 200.8 163C201.1 166.4 201.5 167.3 202.8 167C203.9 166.8 204.6 165.5 204.8 163.4C205 161.1 205.6 160.2 207 160.2C208.5 160.2 210 162 210 163.7C210 165.1 204.9 169.2 203.2 169.2C201.7 169.2 201 169.9 200.8 172C200.5 174.3 200 174.7 197 175C194.7 175.2 194 175 194.8 174.4Z" fill="black"/>
<path d="M227.2 172.7C227.4 171 228 170.2 229.2 170.2C231.5 170.2 231.6 173.7 229.4 174.6C227.1 175.5 227 175.4 227.2 172.7Z" fill="black"/>
<path d="M46.9999 139.6C37.4999 137.6 25.3999 131.3 19.4999 125.3C16.3999 122.1 14.8999 119.9 15.4999 119.3C16.5999 118.2 32.8999 115.2 37.7999 115.2C39.5999 115.2 45.6999 117.5 52.2999 120.6C65.8999 127.2 71.0999 128.7 83.8999 130.3C93.8999 131.5 108.2 130.4 110.3 128.3C110.8 127.8 107.9 127.1 103.4 126.8C89.8999 125.8 73.2999 123.2 66.1999 121.1C48.5999 115.7 33.0999 103.6 25.6999 89.4C23.6999 85.6 21.9999 82.1 21.9999 81.7C21.9999 81.3 25.6999 81.2 30.2999 81.4C41.9999 81.9 47.1999 84.6 58.5999 95.9C71.9999 109.3 87.4999 118.5 101.2 121.2C104.1 121.8 107.5 122.5 108.8 122.8C113.6 123.8 110.7 121.6 104.3 119.4C86.2999 113.2 70.6999 103.2 60.7999 91.5C54.6999 84.3 48.5999 72.2 45.8999 61.7C43.2999 51.8 42.6999 29 44.7999 23C45.5999 20.9 46.3999 19.2 46.6999 19.2C47.9999 19.2 70.1999 40.7 71.4999 43.3C72.2999 44.8 73.8999 51.3 75.0999 57.8C79.2999 81.4 84.5999 93.1 96.8999 105.2C103.6 111.9 114.3 119.2 115.6 117.9C115.8 117.7 110.7 111.8 104.2 104.9C86.6999 86.4 81.3999 74.9 80.2999 53.2C79.4999 37.4 84.2999 16.9 91.5999 4.4L94.1999 0L97.4999 5.5C105.3 18.5 111 30.1 111.6 34.3C112.1 37.8 111.4 41 108.5 49.7C102.7 67.3 102.7 80.1 108.7 94.9C111.5 101.9 120.5 116.3 125.9 122.5L129.2 126.2L123.5 128.7C115.3 132.4 96.5999 137.8 86.3999 139.6C75.4999 141.5 55.7999 141.5 46.9999 139.6Z" fill="black"/>
<path d="M163.5 136.6C151.2 134 134.3 128.9 131.4 126.8C130 125.7 130.5 124.7 135.5 117.6C145.2 104.2 150.9 90.8 152.5 78C153.4 70.5 151.6 59.8 147.5 49.2C143 37.5 142.7 35.3 144.4 30.4C146.1 25.7 157.6 2.50001 159.3 0.400007C161.5 -2.29999 169 13.2 173.2 29C175 35.9 175.4 40.4 175.4 50.7C175.4 74.9 170.6 85.8 149.6 108.6C145.3 113.4 141.9 117.5 142.2 117.7C143.3 118.8 157.9 108.2 162.1 103.3C172.8 91 177.6 79.1 181 57.2C182.1 50 183.6 42.9 184.4 41.5C185.9 38.5 208.1 16 208.8 16.7C210.3 18.1 212 30.3 212 39.4C212 76.1 195.6 100.2 159.5 116C148.3 120.9 145.8 122.6 151 121.6C168.6 118.5 181.6 110.9 197.7 94.5C210 82 215 79.3 227.1 78.5C231.4 78.2 235 78.2 235 78.6C235 80.5 228.2 92.4 224.2 97.5C216.1 107.8 201.5 117 187.3 120.7C179.8 122.7 165.7 124.9 155.3 125.8C150.7 126.2 147 126.9 147 127.3C147 127.8 147.4 128.2 147.9 128.2C148.4 128.2 152.3 128.7 156.4 129.3C161.8 130 166.3 130 172.2 129.2C185.6 127.4 191.8 125.4 205.5 118.6C218.2 112.1 218.5 112.1 224.5 112.7C236.3 114 243 115.4 243 116.7C243 117.3 240.3 120.5 237 123.6C230.1 130.2 219.7 135.5 209.5 137.7C198.3 140.1 177.9 139.6 163.5 136.6Z" fill="black"/>
<path d="M1 188.5C1.1 181.8 6.6 155.1 8.1 154.1C17.2 148.4 62.2 144.3 81 147.6C91.2 149.4 104.9 155.2 108.5 159.3L110.5 161.5L107.5 160.9C105.9 160.6 100.4 158.8 95.4 156.8C90.5 154.9 83.5 152.8 79.9 152.3C65.5 149.9 35.8 151.8 27.4 155.6C22.7 157.8 16.9 163.5 14.2 168.7C12.7 171.7 8.9 183.5 9.4 183.9C9.6 184.2 16.5 183.2 24.7 181.8C56 176.5 69.2 176.3 91 181.2C104.2 184.1 105.4 184 114.4 178.1C118.7 175.2 124.2 172.3 126.7 171.6C132.4 169.9 136.4 171.1 145.4 177.6C151.3 181.8 152.4 182.2 157.7 182.2C160.9 182.2 166.7 181.5 170.5 180.7C174.4 179.9 182.8 178.9 189.3 178.5C199.6 178 201 178.1 201 179.5C201 181.3 199.6 181.8 191.5 182.8C188.2 183.1 179.2 185.2 171.5 187.4C154 192.4 149.7 192.3 142.1 186.8C133.3 180.3 129.7 180.4 120.4 187.4C113.2 192.8 111.2 193 98.9 188.9C83.2 183.7 77.9 182.8 63 182.9C49.1 183 42 183.9 16.2 189.3C8.3 190.9 1.7 192.2 1.5 192.2C1.2 192.2 1 190.5 1 188.5Z" fill="black"/>
<path d="M238.5 186.7C226.4 184.3 214.4 182 211.8 181.7C208.3 181.2 207 180.6 207 179.5C207 178.1 208.3 178 217.8 178.6C223.7 179 233 179.9 238.5 180.7C252.5 182.7 252.4 182.8 251.5 179.5C250.2 174.1 246.2 166.4 242.4 162.3C235.4 154.4 228.4 151.8 211 150.3C204.1 149.7 203.5 149.5 203.2 147.3L202.8 144.9L212.2 145.6C236.8 147.4 253.5 150.9 255 154.6C255.5 155.7 257.1 163.2 258.5 171.2C259.9 179.2 261.4 186.9 261.7 188.5C262 190 261.8 191.2 261.4 191.1C260.9 191.1 250.6 189.1 238.5 186.7Z" fill="black"/>
<path d="M34 175.3C34 174.7 34.7 174.2 35.5 174.2C37.7 174.2 37.8 168.4 35.7 167C34.9 166.5 35.2 165.7 36.8 164.7C38 163.8 39 162.5 39 161.9C39 161.1 38.7 161.1 38.1 162C37.5 163 37.1 162.8 36.7 161.2C35.7 157.2 33.5 159.6 33.2 165.1C33 168.6 32.5 170.2 31.7 169.9C31 169.7 30.6 168.2 30.8 166.4C31 164.3 30.5 162.6 29.1 161.1C26.5 158.3 27.3 157 30.7 158.3C32.6 159 33.5 158.9 34.1 158.1C34.6 157.2 35.5 157.2 37.8 158.1C41.3 159.6 42.4 161.6 41.1 164C40.5 165 40.7 166.4 41.7 167.9C43.1 170 43.1 170.5 41.6 172.7C40.7 174.1 39.3 175.2 38.6 175.2C37.8 175.2 36.5 175.5 35.6 175.8C34.7 176.1 34 175.9 34 175.3Z" fill="black"/>
<path d="M46.1 175.2C44.7 174.4 45.3 171.2 46.8 171.2C47.3 171.2 48.3 171.8 48.9 172.6C50.4 174.3 48.1 176.5 46.1 175.2Z" fill="black"/>
<path d="M53 173.5C53 170.8 53.6 170.6 55.6 172.7C57.4 174.4 58 174.5 60 173.2C61.2 172.5 61.1 171.9 59 169.8C56.7 167.2 56.7 167.2 58.8 167.2C60 167.2 61 166.7 61 166C61 165.3 61.9 165.7 63.1 166.9C67.4 171.1 63.9 175.6 56.3 175.7C53.5 175.7 53 175.3 53 173.5Z" fill="black"/>
<path d="M68.0999 174.8C66.6999 173.1 67.3999 171.2 69.4999 171.2C71.6999 171.2 72.3999 173.2 70.7999 174.8C69.4999 176.1 69.1999 176.1 68.0999 174.8Z" fill="black"/>
<path d="M75 174C75 173 75.7 172.2 76.5 172.2C77.3 172.2 78.4 173 78.9 174C79.6 175.4 79.4 175.7 77.4 175.7C75.8 175.7 75 175.1 75 174Z" fill="black"/>
<path d="M91.3001 175.1C91.6001 174.2 91.3001 172.9 90.7001 172.3C89.9001 171.5 90.0001 171.2 91.2001 171.2C93.8001 171.2 94.4001 173.2 92.5001 175C90.9001 176.6 90.8001 176.6 91.3001 175.1Z" fill="black"/>
<path d="M188 174.7C186.8 173.3 186.9 172.9 188.1 172.1C190 170.9 190.7 171 191.6 172.3C191.9 172.9 191.6 174 190.8 174.8C189.5 176.1 189.2 176.1 188 174.7Z" fill="black"/>
<path d="M212.3 174.6C211.6 172.7 213.4 170.7 214.9 171.6C216.5 172.6 216.2 174.9 214.5 175.6C213.6 175.9 212.7 175.5 212.3 174.6Z" fill="black"/>
<path d="M221.8 175.5C219.5 175.1 219 174.6 219 172.2C219 168.7 220.7 167.3 221.2 170.3C221.6 173.4 224.4 174.9 226.5 173.2C227.9 172 227.6 171.5 223.5 167.7C221 165.4 219 163 219 162.3C219 160.4 222 159.8 223.8 161.5C224.7 162.4 226.7 164.2 228.3 165.6C233.9 170.8 230.1 176.7 221.8 175.5Z" fill="black"/>
<path d="M235 173.7C235 171 235.9 170.5 237.8 172.4C238.6 173.2 238.7 173.9 237.9 174.9C236.2 176.9 235 176.4 235 173.7Z" fill="black"/>
<path d="M196.5 172.6C198.3 170.7 199 168.8 199 166.1C199 163.9 198.6 162.2 198 162.2C197.5 162.2 197 161.8 197 161.2C197 160.7 197.9 160.2 199 160.2C200.6 160.2 201 160.9 201 163.5C201 167.5 201.8 168.6 203.7 167.1C205.9 165.2 205.3 160.3 202.8 159.3C201.5 158.8 201.1 158.3 201.7 157.9C203.4 156.8 207.7 158.9 209 161.3C210 163.1 209.9 163.9 208.3 166.1C207.2 167.5 205.1 168.8 203.7 169C201.6 169.3 201 169.9 201 171.7C201 173 201.6 174.3 202.3 174.5C202.9 174.8 201.4 175.1 198.8 175.1L194.1 175.2L196.5 172.6Z" fill="black"/>
<path d="M79.8 168.6C74.7 165.9 73.6 161.2 77.4 158.7C80.9 156.4 85 157.6 84.9 161.1C84.9 163.6 84.9 163.6 84 161.5C83 159.1 80.6 158.5 79.4 160.3C79 161 80.1 162.5 81.9 163.9C85 166.3 86.2 170.2 83.8 170.2C83.1 170.1 81.3 169.5 79.8 168.6Z" fill="black"/>
<path d="M53.7 165.5C53.3 165.2 53 163.6 53 162C53 159.9 53.5 159.2 55 159.2C56.1 159.2 57 159.9 57 160.7C57 161.6 57.7 162.5 58.5 162.8C60.3 163.5 60.5 166.2 58.7 166.2C58 166.2 56.8 165.6 56.1 165C55 164 54.8 164 55.4 165C56.1 166.3 54.8 166.7 53.7 165.5Z" fill="black"/>
<path d="M228.2 161.2C227.5 160.1 226.3 159.2 225.5 159.2C224.7 159.2 224 158.8 224 158.3C224 157.9 225.3 157.5 227 157.6C230.2 157.7 231.5 159.5 230.2 161.8C229.6 162.9 229.2 162.8 228.2 161.2Z" fill="black"/>
<path d="M160.2 154C161.4 150.5 181.5 145.3 193.8 145.2C199.3 145.2 200 145.4 200 147.2C200 148.3 199.4 149.2 198.8 149.2C192.4 149.4 177 151.5 171 153.1C162.2 155.5 159.7 155.7 160.2 154Z" fill="black"/>
<path d="M32.1999 184.6C32.4999 182.9 34.2999 182.5 34.7999 184C34.8999 184.5 34.3999 185.2 33.4999 185.6C32.3999 186 31.9999 185.7 32.1999 184.6Z" fill="black"/>
<path d="M175 184.9C175 183.1 176.5 182.5 180.5 182.6C182.2 182.7 183.8 182.3 184.2 181.7C184.7 181.1 185 181.4 185 182.3C185 183.4 183.8 184.2 181.4 184.6C179.5 185 177.2 185.6 176.4 185.9C175.6 186.2 175 185.8 175 184.9Z" fill="black"/>
<path d="M43 182.3C43 181.2 45.1 180.4 46.8 180.9C48.9 181.7 48.1 183.2 45.5 183.2C44.1 183.2 43 182.8 43 182.3Z" fill="black"/>
<path d="M220 181.7C220 180.8 220.6 180.5 221.5 180.8C222.3 181.2 223 181.8 223 182.3C223 182.8 222.3 183.2 221.5 183.2C220.7 183.2 220 182.5 220 181.7Z" fill="black"/>
<path d="M196.4 181.4C192.8 180.7 192.8 179.3 196.3 178.7C201.4 177.7 213.3 178.6 213.7 179.9C214.1 181 200.6 182.1 196.4 181.4Z" fill="black"/>
<path d="M30.6999 175.3L26.8999 174.7L28.8999 172.5C30.0999 171.3 30.8999 169.7 30.7999 169.1C30.5999 168.5 31.0999 167.7 31.7999 167.5C32.5999 167.2 32.9999 168.1 32.9999 170.2C32.9999 172.5 33.4999 173.5 34.9999 173.9C36.6999 174.4 36.8999 176.4 35.1999 176.1C34.7999 176 32.7999 175.6 30.6999 175.3Z" fill="black"/>
<path d="M52.8 174.9C52.5 174.3 52.7 172.6 53.1 171.2C53.5 169.8 53.8 169.2 53.9 169.9C54 170.5 54.7 171.7 55.5 172.6C56.9 173.9 56.8 174.2 55.1 175.1C53.7 175.9 53.1 175.8 52.8 174.9Z" fill="black"/>
<path d="M77.3 175.5C75.5 175.2 75 174.4 75 172.1C75 168.6 76.1 168.3 77.5 171.5C78.7 174.1 82.3 174.5 82.8 172C83 171 82 169.7 80.2 168.8C78.6 168 76.9 166.5 76.6 165.5C76 163.9 76 163.9 77.8 165.5C80.1 167.6 82.1 167.7 81.4 165.7C80.4 163.3 82.7 164 84.9 166.8C87.3 169.9 87.4 171 85.7 173.4C84.2 175.3 80.6 176.2 77.3 175.5Z" fill="black"/>
<path d="M189 173.8C189 171.2 190.3 170.3 191.5 172.2C191.8 172.8 191.4 173.9 190.6 174.8C189.1 176.2 189 176.1 189 173.8Z" fill="black"/>
<path d="M212 174.7C210.8 173.3 210.9 172.9 212.1 172.1C214 170.9 214.7 171 215.6 172.3C215.9 172.9 215.6 174 214.8 174.8C213.5 176.1 213.2 176.1 212 174.7Z" fill="black"/>
<path d="M67.9999 174.2C67.2999 173.8 66.9999 173 67.3999 172.4C68.1999 171.1 71.2999 171.5 71.6999 172.9C72.1999 174.3 69.5999 175.2 67.9999 174.2Z" fill="black"/>
<path d="M172.5 172.6C168.6 166.7 171.9 158.2 178.1 158.2C181.6 158.2 183.7 161.4 181.5 163.2C180.7 163.9 179.9 164.1 179.9 163.6C179.8 163.1 179.7 162 179.6 161.2C179.6 160.4 178.7 159.6 177.8 159.4C176.2 159.1 176 160 176 166.6C176 174.8 177.3 176.4 180.5 172L182.1 169.7L181.8 172.2C181.6 174.3 180.9 174.8 177.9 175C174.9 175.3 174 174.8 172.5 172.6ZM172.7 165C172.5 163.7 172.3 164.5 172.3 166.7C172.2 168.9 172.4 169.9 172.7 169C172.9 168 172.9 166.2 172.7 165Z" fill="black"/>
<path d="M196.7 174C198.7 173.3 200.1 172.1 200.3 170.8C200.6 169.4 200.8 169.8 200.9 172C201 175.1 200.9 175.2 197.3 175.1L193.5 175L196.7 174Z" fill="black"/>
<path d="M219.3 173.6C219 172.9 219.2 171.7 219.6 171.1C220.1 170.2 220.6 170.5 221.1 172C222.1 174.5 225.2 174.9 227 172.7C227.7 171.9 227.9 171.2 227.4 171.2C226.9 171.2 227.2 170.7 228 170.2C229.3 169.4 229.2 169.1 227.5 167.8C225.3 166.2 226 164.6 228.4 165.5C230.4 166.3 231.6 171.1 230.3 173.1C229 175.1 220.1 175.6 219.3 173.6Z" fill="black"/>
<path d="M59.0999 173.9C59.2999 173.6 60.5999 172.9 61.8999 172.2C63.7999 171.3 64.0999 171.3 63.7999 172.3C63.5999 173 62.2999 173.7 60.9999 173.9C59.6999 174.1 58.7999 174.1 59.0999 173.9Z" fill="black"/>
<path d="M56.3 167.6C53.9 165.8 53 164.2 53 162.2C53 158.7 53.8 158.1 59.5 157.7C63.6 157.5 64 157.6 64 159.8C64 162.8 62.3 163.8 61.5 161.2C60.7 158.6 57.4 158.6 56.7 161.2C56.4 162.3 56.6 163 57 162.7C58.2 162 64 167.1 64 168.8C64 171 59.8 170.4 56.3 167.6Z" fill="black"/>
<path d="M199 165.3C199 164.1 198.1 162.1 196.9 160.9L194.9 158.7L199.2 158.1C201.6 157.7 204.5 157.8 205.7 158.3C208.3 159.3 209.8 163.8 208.1 165.5C207.2 166.4 207 166.3 207.6 164.9C208.4 162.7 205.5 159.2 202.8 159.2C201.6 159.2 200.9 160 200.8 161.5C200.6 165.6 200.5 166.1 199.7 166.8C199.3 167.2 199 166.5 199 165.3Z" fill="black"/>
<path d="M31.4998 164.2C31.9998 162.8 31.6998 162.2 30.5998 162.2C29.6998 162.2 28.9998 161.5 28.9998 160.7C28.9998 159.9 28.3998 159.1 27.7998 159.1C27.0998 159 28.4998 158.6 30.9998 158.1C35.9998 157.3 40.4998 158.5 41.4998 161C41.7998 161.8 41.5998 163 41.0998 163.5C40.5998 164 39.9998 163.6 39.5998 162.4C38.8998 160.4 35.3998 158.8 33.7998 159.8C33.3998 160.1 32.9998 161.6 32.9998 163.3C32.9998 164.9 32.4998 166.2 31.8998 166.2C31.2998 166.2 31.0998 165.3 31.4998 164.2Z" fill="black"/>
<path d="M219.7 163.8C218.8 161.4 220 159.2 222.6 158.1C225.7 157 230 158.6 230 160.9C230 162.4 229.9 162.4 228.7 160.8C227.9 159.8 226.5 159.2 225.4 159.4C223.4 159.8 223.3 160.3 224.6 163.7C225.3 165.5 225.2 165.6 223.6 164.3C222.2 163.1 221.7 163.1 221.1 164.1C220.5 165.1 220.1 165 219.7 163.8Z" fill="black"/>
<path d="M106.3 161.2C102.8 159.6 100 157.7 100.1 157C100.1 156.1 100.3 156.1 100.6 156.8C100.9 157.5 102 157.8 103 157.5C105 157 110.8 160 113 162.7C114.7 164.8 113.5 164.5 106.3 161.2Z" fill="black"/>
<path d="M83.6998 161.3C83.3998 160.1 82.1998 159.2 80.3998 159C77.9998 158.7 78.1998 158.5 81.7998 158.1C85.7998 157.7 85.9998 157.7 85.9998 160.4C85.9998 163.6 84.4998 164.2 83.6998 161.3Z" fill="black"/>
<path d="M152.3 158.9C154.3 157 158.4 154.3 161.2 152.8C166.1 150.2 166.5 150.2 167.7 151.8C168.8 153.3 168.4 153.7 164.2 155.2C161.6 156.1 157 158.1 154 159.6L148.5 162.3L152.3 158.9Z" fill="black"/>
<path d="M85.3 153.5C83.9 153.2 83.3 152.6 83.7 151.6C84.3 149.9 86.9 149.8 89.3 151.6C92.4 154 91.1 154.6 85.3 153.5Z" fill="black"/>
<path d="M169.7 150.8C168 149.5 168.1 149.4 170 148.9C171.5 148.5 172 148.9 172 150.3C172 152.5 172 152.5 169.7 150.8Z" fill="black"/>
<path d="M214 150.5C212.6 150.2 211.2 149.5 210.8 148.8C210.4 148.2 210 148.2 210 148.7C210 149.3 206.5 149.7 201.5 149.7C193.2 149.7 192.1 149.2 193.8 146.5C194.9 144.8 211.8 145.4 214.7 147.2C216.9 148.6 218.7 151.3 217.2 151.1C216.8 151 215.4 150.7 214 150.5Z" fill="black"/>
<path d="M126.7 91.2C126.3 89.8 126 87.5 126 86C126 84.4 125.6 83.2 125 83.2C124.5 83.2 124 84 124 85C124 85.9 123.1 87.3 121.9 88C120 89.2 119.9 89.1 120.6 85.7C120.9 83.8 120.9 82.2 120.5 82.2C120.1 82.2 118 83.6 115.9 85.3C111.3 88.9 111.1 88.8 114.5 84.2C117.6 80 117.6 79.4 114.5 80C113.2 80.2 111.3 80.1 110.3 79.8C108.9 79.2 109.2 78.7 112.1 77C115.2 75.1 115.3 74.8 113.5 74.1C112.4 73.7 110 73.3 108.2 73.3C104.5 73.2 104.7 71.2 108.5 71.2C109.8 71.2 111.6 70.9 112.5 70.6C113.9 70 113.8 69.8 112 68.5C109 66.4 109.3 64 112.6 65.2C118 67.3 118.4 65.9 113.9 60.7C110.5 56.9 111.2 56 115.3 59.2C118.4 61.7 119 61.7 119 59.4C119 58.4 119.7 56.7 120.5 55.6C121.9 53.7 121.9 53.7 122 55.8C122 58.1 124.5 60.8 125.3 59.5C125.6 59.1 126.1 56.8 126.5 54.4C127.3 49.3 129 49.8 129 55.3C129 57.4 129.5 59.2 130 59.2C130.6 59.2 131 58.8 131 58.4C131 58 132.5 56.8 134.3 55.8C136 54.8 136.9 54.5 136.3 55.3C135 56.6 134.5 62.2 135.6 62.2C135.9 62.2 137.6 61.1 139.4 59.7C143.9 56.2 144.7 56.6 141.6 60.6C138.3 65 138.3 65.5 142 64.7C146.4 63.7 147.8 65.2 144.1 66.9C140.3 68.8 140.1 70.2 143.8 70.3C145.3 70.3 147.4 70.7 148.5 71.2C150.3 71.9 150.1 72.1 147.3 72.7C144 73.5 143.1 74.6 145 75.7C145.6 76 146 76.9 146 77.7C146 78.7 145.1 78.9 142.3 78.5C138.3 77.8 138.3 78.5 142.3 82.9C145.1 86.1 143.9 86.7 139.8 84.2L136.3 82.2L136.8 85.1C137 86.7 136.7 88.3 136.1 88.6C135.5 89 135 88.7 135 87.9C135 87.1 134 85.8 132.8 84.9C130.6 83.4 130.5 83.5 128.9 88.6C127.6 93.1 127.3 93.4 126.7 91.2Z" fill="#473BF0"/>
</svg>
